<svg xmlns="http://www.w3.org/2000/svg" viewBox="0 0 340 76" fill="none" width="100%" height="100%">
  <defs>
    <linearGradient id="c2LeafL" x1="0%" y1="100%" x2="100%" y2="0%">
      <stop offset="0%" stop-color="#8DB682" />
      <stop offset="100%" stop-color="#B2D1A7" />
    </linearGradient>
    <linearGradient id="c2GoldL" x1="0%" y1="0%" x2="100%" y2="100%">
      <stop offset="0%" stop-color="#F4D9B0" />
      <stop offset="100%" stop-color="#D4AA74" />
    </linearGradient>
  </defs>

  <!-- Left Icon Mark -->
  <g transform="translate(6, 4) scale(0.68)">
    <path d="M 12 50 C 10 44 11 38 14 36 C 17 34 20 37 19 41 C 18 45 14 47 13 54 C 12 63 17 72 24 74 C 27 75 29 73 28 70 C 26 64 24 54 26 42" 
          stroke="#9AC08F" stroke-width="3" stroke-linecap="round" fill="none" />
    <circle cx="15" cy="37" r="2.5" fill="#9AC08F" />

    <path d="M 25 42 C 24 30 31 18 47 12 C 49 26 43 38 29 44 C 27 45 25 44 25 42 Z" 
          fill="url(#c2LeafL)" />

    <g transform="rotate(24 64 42)">
      <path d="M 64 12 C 78 22 84 40 76 60 C 66 74 52 70 48 54 C 44 38 52 18 64 12 Z" 
            stroke="url(#c2GoldL)" stroke-width="4.5" stroke-linejoin="round" fill="#244B3B" />
      <path d="M 62 20 C 72 28 75 42 68 54 C 64 60 58 60 56 50" 
            stroke="url(#c2GoldL)" stroke-width="2.2" stroke-linecap="round" fill="none" opacity="0.85" />
    </g>

    <g transform="rotate(48 40 62)">
      <path d="M 40 32 C 54 40 58 56 50 72 C 42 82 30 78 26 64 C 22 52 30 36 40 32 Z" 
            stroke="url(#c2GoldL)" stroke-width="4.2" stroke-linejoin="round" fill="#1C382B" />
      <path d="M 39 39 C 48 45 50 56 44 66 C 40 71 36 69 34 62" 
            stroke="url(#c2GoldL)" stroke-width="2" stroke-linecap="round" fill="none" opacity="0.85" />
    </g>
  </g>

  <!-- Typography: Inverted Light -->
  <g transform="translate(80, 0)">
    <text x="0" y="47" 
          font-family="'Playfair Display', Georgia, serif" 
          font-weight="800" 
          font-size="46" 
          letter-spacing="-0.035em" 
          fill="#FFFFFF">dry<tspan fill="#A5C799">see</tspan></text>
    <text x="2" y="66" 
          font-family="'DM Sans', -apple-system, sans-serif" 
          font-weight="700" 
          font-size="8.8" 
          letter-spacing="0.22em" 
          fill="#C4D1C6" 
          text-transform="uppercase">PREMIUM ORGANIC DRY FRUITS &amp; SEEDS</text>
  </g>
</svg>
